<svg width="716" height="716" viewBox="0 0 716 716" fill="none" xmlns="http://www.w3.org/2000/svg">
<g clip-path="url(#clip0_4_4424)">
<g opacity="0.4">
<path d="M507.475 291.549L611.723 284.375C618.835 283.883 621.403 293.624 614.959 296.703L520.702 341.849C515.461 344.408 515.92 351.997 521.466 353.861L620.483 387.121C627.275 389.368 625.929 399.363 618.765 399.747L514.426 405.377C508.619 405.695 506.129 412.937 510.511 416.759L589.306 485.386C594.717 490.095 589.63 498.804 582.892 496.397L484.368 461.705C478.85 459.762 473.819 465.463 476.377 470.705L522.913 564.283C526.046 570.702 518.083 576.773 512.778 572.011L435.005 502.223C430.65 498.322 423.805 501.664 424.201 507.497L431.376 611.744C431.867 618.856 422.127 621.425 419.048 614.98L373.901 520.724C371.343 515.482 363.753 515.941 361.89 521.487L328.63 620.503C326.382 627.297 316.387 625.949 316.004 618.787L310.374 514.446C310.057 508.641 302.814 506.15 298.992 510.532L230.365 589.327C225.655 594.739 216.947 589.651 219.354 582.914L254.046 484.389C255.989 478.871 250.287 473.84 245.046 476.398L151.468 522.936C145.05 526.068 138.977 518.104 143.739 512.8L213.528 435.026C217.43 430.672 214.088 423.826 208.254 424.222L104.006 431.397C96.8945 431.888 94.3268 422.149 100.77 419.069L195.028 373.923C200.269 371.365 199.809 363.774 194.265 361.912L95.247 328.651C88.4549 326.404 89.801 316.409 96.9648 316.025L201.304 310.395C207.11 310.077 209.602 302.835 205.22 299.013L126.424 230.386C121.012 225.677 126.099 216.968 132.838 219.375L231.361 254.068C236.879 256.01 241.911 250.309 239.352 245.068L192.816 151.489C189.683 145.071 197.646 138.999 202.951 143.76L280.724 213.549C285.079 217.45 291.924 214.109 291.528 208.276L284.274 104C283.783 96.8885 293.522 94.3203 296.602 100.764L341.748 195.021C344.306 200.263 351.897 199.803 353.759 194.258L387.073 95.2147C389.321 88.4222 399.316 89.7687 399.7 96.9324L405.33 201.272C405.648 207.078 412.889 209.569 416.712 205.187L485.339 126.391C490.048 120.98 498.757 126.067 496.35 132.805L461.657 231.329C459.715 236.847 465.416 241.879 470.657 239.32L564.236 192.784C570.654 189.651 576.726 197.614 571.964 202.918L502.176 280.692C498.275 285.047 501.616 291.892 507.449 291.496L507.475 291.549Z" stroke="#E8E8E8" stroke-width="0.668651" stroke-miterlimit="10"/>
<path d="M458.575 313.627L528.873 308.789C533.669 308.459 535.401 315.027 531.056 317.103L467.494 347.546C463.959 349.272 464.27 354.391 468.008 355.646L534.78 378.075C539.36 379.59 538.453 386.331 533.622 386.589L463.261 390.386C459.346 390.601 457.666 395.485 460.622 398.062L513.757 444.339C517.406 447.515 513.975 453.388 509.431 451.765L442.993 428.37C439.272 427.06 435.879 430.905 437.604 434.44L468.985 497.542C471.098 501.87 465.729 505.965 462.151 502.755L409.705 455.693C406.769 453.062 402.152 455.315 402.42 459.249L407.259 529.548C407.59 534.343 401.022 536.074 398.945 531.729L368.502 468.169C366.776 464.634 361.658 464.944 360.402 468.684L337.973 535.454C336.457 540.035 329.718 539.126 329.458 534.296L325.662 463.936C325.448 460.021 320.564 458.341 317.987 461.295L271.709 514.43C268.534 518.08 262.661 514.649 264.283 510.105L287.678 443.666C288.988 439.947 285.143 436.552 281.609 438.278L218.506 469.66C214.178 471.773 210.083 466.402 213.294 462.825L260.355 410.379C262.986 407.443 260.733 402.827 256.799 403.094L186.501 407.932C181.706 408.264 179.973 401.696 184.318 399.619L247.88 369.175C251.414 367.45 251.104 362.332 247.365 361.075L180.593 338.647C176.014 337.131 176.922 330.391 181.752 330.132L252.113 326.336C256.028 326.122 257.708 321.238 254.752 318.661L201.617 272.383C197.969 269.207 201.399 263.335 205.942 264.958L272.381 288.352C276.102 289.662 279.495 285.817 277.77 282.283L246.388 219.18C244.276 214.852 249.646 210.757 253.223 213.968L305.668 261.029C308.604 263.66 313.221 261.406 312.953 257.473L308.062 187.156C307.731 182.361 314.298 180.629 316.375 184.974L346.819 248.535C348.544 252.07 353.662 251.76 354.919 248.021L377.383 181.232C378.899 176.652 385.64 177.559 385.898 182.39L389.695 252.75C389.908 256.666 394.792 258.346 397.369 255.391L443.647 202.255C446.823 198.607 452.695 202.036 451.073 206.58L427.677 273.019C426.369 276.74 430.212 280.133 433.747 278.408L496.851 247.026C501.179 244.914 505.274 250.284 502.062 253.86L455.001 306.306C452.371 309.243 454.624 313.859 458.557 313.591L458.575 313.627Z" stroke="#E8E8E8" stroke-width="0.668651" stroke-miterlimit="10"/>
<path d="M408.122 335.975L443.271 333.557C445.669 333.391 446.535 336.675 444.362 337.714L412.582 352.935C410.814 353.798 410.969 356.357 412.839 356.986L446.224 368.199C448.514 368.958 448.06 372.327 445.645 372.457L410.466 374.355C408.507 374.462 407.668 376.904 409.145 378.192L435.713 401.331C437.537 402.919 435.822 405.856 433.551 405.044L400.331 393.347C398.471 392.692 396.774 394.614 397.636 396.381L413.327 427.934C414.383 430.097 411.698 432.144 409.91 430.539L383.687 407.008C382.219 405.694 379.911 406.82 380.045 408.786L382.463 443.936C382.629 446.333 379.345 447.199 378.307 445.027L363.085 413.246C362.222 411.479 359.663 411.635 359.035 413.504L347.822 446.889C347.063 449.179 343.692 448.725 343.564 446.31L341.665 411.129C341.558 409.173 339.116 408.332 337.827 409.81L314.689 436.377C313.1 438.201 310.165 436.487 310.976 434.215L322.674 400.996C323.328 399.135 321.406 397.439 319.638 398.302L288.087 413.992C285.924 415.048 283.875 412.363 285.481 410.575L309.012 384.351C310.327 382.884 309.2 380.575 307.234 380.709L272.085 383.129C269.686 383.293 268.822 380.01 270.994 378.972L302.774 363.75C304.542 362.887 304.386 360.328 302.517 359.7L269.131 348.485C266.841 347.728 267.295 344.358 269.71 344.228L304.89 342.33C306.848 342.223 307.688 339.782 306.21 338.492L279.643 315.353C277.818 313.766 279.533 310.829 281.806 311.641L315.024 323.337C316.885 323.993 318.582 322.071 317.719 320.303L302.029 288.752C300.972 286.588 303.657 284.54 305.446 286.147L331.669 309.676C333.137 310.992 335.445 309.866 335.311 307.898L332.865 272.741C332.699 270.342 335.983 269.476 337.022 271.649L352.244 303.43C353.106 305.197 355.666 305.042 356.293 303.172L367.526 269.778C368.283 267.487 371.654 267.942 371.784 270.356L373.682 305.537C373.789 307.495 376.23 308.335 377.519 306.857L400.657 280.29C402.246 278.465 405.182 280.181 404.371 282.452L392.673 315.672C392.018 317.532 393.941 319.229 395.708 318.366L427.26 302.676C429.424 301.619 431.471 304.303 429.865 306.093L406.335 332.315C405.019 333.783 406.146 336.092 408.113 335.957L408.122 335.975Z" stroke="#E8E8E8" stroke-width="0.668651" stroke-miterlimit="10"/>
</g>
</g>
<defs>
<clipPath id="clip0_4_4424">
<rect width="534.921" height="534.921" fill="white" transform="translate(480.707 0.648926) rotate(63.9828)"/>
</clipPath>
</defs>
</svg>
