<svg width="16" height="27" viewBox="0 0 16 27" fill="none" xmlns="http://www.w3.org/2000/svg">
<g clip-path="url(#clip0_4_4218)">
<path d="M8 9.08782L6.40987 4.922L6.43729 9.41881L3.47087 6.2174L5.11583 10.3547L1.21727 8.60847L4.23304 11.7642L0 11.73L3.92049 13.4191L0 15.114L4.23304 15.0798L1.21727 18.2355L5.11583 16.4836L3.47087 20.6266L6.43729 17.4252L6.40987 21.922L8 17.7562L9.59013 21.922L9.56271 17.4252L12.5291 20.6266L10.8842 16.4836L14.7827 18.2355L11.767 15.0798L16 15.114L12.0795 13.4191L16 11.73L11.767 11.7642L14.7827 8.60847L10.8842 10.3547L12.5291 6.2174L9.56271 9.41881L9.59013 4.922L8 9.08782Z" fill="#E8E8E8"/>
</g>
<defs>
<clipPath id="clip0_4_4218">
<rect width="16" height="17" fill="white" transform="translate(0 4.922)"/>
</clipPath>
</defs>
</svg>
