<svg width="17" height="27" viewBox="0 0 17 27" fill="none" xmlns="http://www.w3.org/2000/svg">
<g clip-path="url(#clip0_4_4201)">
<path d="M12.6977 13.4219C12.6977 15.5276 11.092 17.2276 9.11594 17.2276C7.1398 17.2276 5.53418 15.5216 5.53418 13.4219C5.53418 11.3223 7.1398 9.61633 9.11594 9.61633C11.092 9.61633 12.6977 11.3223 12.6977 13.4219Z" fill="#E8E8E8"/>
<path d="M9.11594 17.2276C11.0941 17.2276 12.6977 15.5237 12.6977 13.4219C12.6977 11.3202 11.0941 9.61633 9.11594 9.61633C7.13779 9.61633 5.53418 11.3202 5.53418 13.4219C5.53418 15.5237 7.13779 17.2276 9.11594 17.2276Z" stroke="#E8E8E8" stroke-width="0.36" stroke-miterlimit="10"/>
<path d="M8.95312 4.922V21.922M0.953125 13.422H16.9531" stroke="#E8E8E8" stroke-width="1.08" stroke-miterlimit="10"/>
</g>
<defs>
<clipPath id="clip0_4_4201">
<rect width="16" height="17" fill="white" transform="translate(0.953125 4.922)"/>
</clipPath>
</defs>
</svg>
