<svg width="17" height="26" viewBox="0 0 17 26" fill="none" xmlns="http://www.w3.org/2000/svg">
<g clip-path="url(#clip0_4_4164)">
<path d="M8.72514 12.5029L8.37695 20.5058H9.52823L9.18004 12.5029H8.72514Z" fill="#E8E8E8"/>
<path d="M8.37695 4.5H9.52823L9.18004 12.5028H8.72514L8.37695 4.5Z" fill="#E8E8E8"/>
<path d="M16.953 11.9299V13.0756L8.9502 12.7274V12.2781L16.953 11.9299Z" fill="#E8E8E8"/>
<path d="M0.953125 13.0756V11.9299L8.95034 12.2781V12.7274L0.953125 13.0756Z" fill="#E8E8E8"/>
<path d="M15.0155 17.7539L14.2068 18.5683L8.79297 12.6602L9.11309 12.3401L15.0155 17.7539Z" fill="#E8E8E8"/>
<path d="M2.89062 7.25182L3.69934 6.4375L9.11318 12.34L8.79307 12.6601L2.89062 7.25182Z" fill="#E8E8E8"/>
<path d="M14.2068 6.4375L15.0155 7.25182L9.11309 12.6601L8.79297 12.34L14.2068 6.4375Z" fill="#E8E8E8"/>
<path d="M3.69934 18.5683L2.89062 17.7539L8.79307 12.3401L9.11318 12.6658L3.69934 18.5683Z" fill="#E8E8E8"/>
</g>
<defs>
<clipPath id="clip0_4_4164">
<rect width="16" height="17" fill="white" transform="translate(0.953125 4.5)"/>
</clipPath>
</defs>
</svg>
